<?xml version="1.0" encoding="utf-8"?>
<!-- Generator: Adobe Illustrator 21.0.2, SVG Export Plug-In . SVG Version: 6.00 Build 0)  -->
<svg version="1.1" id="Layer_1" xmlns="http://www.w3.org/2000/svg" xmlns:xlink="http://www.w3.org/1999/xlink" x="0px" y="0px"
	 viewBox="0 0 283.5 283.5" style="enable-background:new 0 0 283.5 283.5;" xml:space="preserve">
<style type="text/css">
	.st0{fill:#3C0458;}
</style>
<g>
	<g>
		<path class="st0" d="M195.5,124.7c0,0-8.4,15-25.8,18.4c0,0-3.2,9.2-15.7,12.3c0,0,4.8,3.7,11.8,3.7c11.9,0,21.6-11.7,23.3-17.7
			c-6.4,6.9-11.5,7.8-11.5,7.8C186.3,144.7,193.3,135.3,195.5,124.7z"/>
		<path class="st0" d="M82.9,103.1c0,18.7,13.2,36.1,31.6,39.2c0,0,3.1,10.1,17,12.6c0,0,0,0-0.1,0.1c-1.7,1.5-3.9,2.9-6.9,4
			c-1.1,0.4-2.4,0.7-3.9,1c0,0,3.3,1.1,6.2,1.1c1.6,0,4.1-0.5,6.4-1.8c1.6,2,4,6.2,3.2,15.7c0.1-0.3,1.3-2.9,2.2-9.8
			c0,0,0.3,3.7-3.3,21.9c2.8-14.6-4.9-25.9-4.9-25.9c-2.4,1-5.4,0.5-5.4,0.5c7.3,8.3,7.8,21.4,7.3,29.1l-1.4,0.8l-1.9,4.1l2.6,1.4
			l2.2,1.1c4.3-6.1,5.6-14.1,5.7-14.6c0,0.5-0.7,7.8-4.9,15l2.8,1.5c0,0,2.6-5.5,2.7-8.9c0,0,0.1,4-1.9,9.4l3.6,1.9l0,0l0,0l0,0l0,0
			l3.6-1.9c-2-5.3-1.9-9.4-1.9-9.4c0,3.4,2.7,8.9,2.7,8.9l2.8-1.5c-4.3-7.3-4.9-14.5-4.9-15c0.1,0.5,1.4,8.6,5.7,14.6l2.2-1.1
			l2.6-1.4l-1.9-4.1l-1.4-0.8c-0.5-7.7,0-20.8,7.3-29.1c0,0-2.9,0.4-5.4-0.5c0,0-7.7,11.3-4.9,25.9c-3.6-18.2-3.3-21.9-3.3-21.9
			c1,6.8,2.1,9.5,2.2,9.8c-0.8-9.5,1.6-13.7,3.2-15.7c2.3,1.3,4.8,1.8,6.4,1.8c2.9,0,6.2-1.1,6.2-1.1c-1.5-0.3-2.7-0.6-3.9-1
			c-3-1-5.2-2.4-6.9-4c0-0.1-0.1-0.1-0.1-0.1c14-2.5,17-12.6,17-12.6c18.4-3.2,31.6-20.5,31.6-39.2c-3.1,13.8-9.6,18.4-9.6,18.4
			c9.6-10.1,8.2-28.6,8.2-28.6s-3.2,29-30.6,39.7c0.1-2.2,0.2-4.4,0.2-6.3c0-5.4-0.3-6.7-0.3-8.8s1.6-4,1.1-10.6c0,0-12.7,3-27.8,3
			l0,0c-15.1,0-27.8-3-27.8-3c-0.5,6.6,1.1,8.5,1.1,10.6s-0.3,3.3-0.3,8.8c0,1.9,0.1,4.1,0.2,6.3c-27.4-10.7-30.6-39.7-30.6-39.7
			s-1.4,18.5,8.2,28.6C92.5,121.5,86,116.9,82.9,103.1z M120.5,114c0,0,8.1,1.6,21.2,1.6c13.2,0,21.2-1.6,21.2-1.6
			s1.9,11.2,0.4,20.2c-1,6.2-7.1,12.5-11.7,14.8c-1.1,0.5-2.1,0.9-2.7,1c-0.1,0-0.3,0-0.4,0l0,0c-0.8-1.9-1-3.6-1-4.5
			c0-11.6,7.4-8.8,7.4-8.8s1.6-3.5-2-3.5c-3.5,0-8.6,2.4-8.6,2.4s1,0.7,0.5,1.6c-1.1,1.9-2.5,3.9-3.1,7.6c-0.6-3.6-2-5.7-3.1-7.6
			c-0.5-1,0.5-1.6,0.5-1.6s-5.1-2.4-8.6-2.4c-3.6,0-2,3.5-2,3.5s7.4-2.8,7.4,8.8c0,1-0.2,2.6-1,4.5l0,0c-0.1,0-0.3,0-0.4,0
			c-0.7-0.1-1.6-0.4-2.7-1c-4.6-2.4-10.6-8.7-11.7-14.8C118.6,125.2,120.5,114,120.5,114z"/>
		<path class="st0" d="M94.4,141.4c1.7,6,11.4,17.7,23.3,17.7c7,0,11.8-3.7,11.8-3.7c-12.6-3.1-15.7-12.3-15.7-12.3
			C96.3,139.7,88,124.7,88,124.7c2.2,10.6,9.2,20,17.9,24.5C105.8,149.2,100.7,148.3,94.4,141.4z"/>
		<path class="st0" d="M94.7,99.2c4.5-5.5,21.4-20.9,47-20.9s42.5,15.5,47,20.9c4.5,5.5-1.7,14.8-1.7,14.8s4.6-5.2,6.7-12.5
			c-8.9-11.2-26.2-25.6-52-25.6s-43.1,14.4-52,25.6c2.1,7.3,6.7,12.5,6.7,12.5S90.3,104.7,94.7,99.2z"/>
		<path class="st0" d="M203.8,120.2c-1.4-4.2,0.5-5.9,0.1-16.9c0,5.1-3.3,14.9-3.3,14.9s4.5,11.8,4.5,23.5
			c0,36.3-29.4,63.4-63.4,63.4c-33.9,0-63.4-27.2-63.4-63.4c0-11.6,4.5-23.5,4.5-23.5s-3.3-9.8-3.3-14.9
			c-0.4,10.9,1.5,12.6,0.1,16.9c-1.4,4.2-3.6,12.1-3.6,21.6c0,34.2,27.6,65.7,65.7,65.7s65.7-31.5,65.7-65.7
			C207.4,132.2,205.2,124.4,203.8,120.2z"/>
	</g>
	<g>
		<polygon class="st0" points="114.1,93.8 113,95.9 114.2,98.2 114.8,98.2 113.6,95.9 114.7,93.8 		"/>
		<rect x="112.5" y="93.8" class="st0" width="0.5" height="4.4"/>
		<path class="st0" d="M117.7,97.8v0.5c0.6,0,0.9-0.1,1-0.7l1.1-3.7h-0.6l-0.6,2.3l-0.6-2.3h-0.6l0.9,3l-0.1,0.5
			C118.1,97.7,118,97.8,117.7,97.8z"/>
		<path class="st0" d="M124.7,94.3v-0.5h-1.9v4.4h1c0.7,0,1-0.3,1-1.3s-0.4-1.3-1-1.3h-0.5v-1.3C123.3,94.3,124.7,94.3,124.7,94.3z
			 M123.8,96.1c0.3,0,0.5,0.2,0.5,0.8c0,0.6-0.2,0.8-0.5,0.8h-0.4v-1.6C123.4,96.1,123.8,96.1,123.8,96.1z"/>
		<path class="st0" d="M128.3,94.1c-0.3,0.3-0.3,0.7-0.3,1.9c0,1.2,0,1.6,0.3,1.9c0.2,0.2,0.4,0.3,0.7,0.3s0.6-0.1,0.7-0.3
			c0.3-0.3,0.3-0.7,0.3-1.9s0-1.6-0.3-1.9c-0.2-0.2-0.4-0.3-0.7-0.3S128.5,93.9,128.3,94.1z M129.6,96c0,1,0,1.4-0.2,1.6
			c-0.1,0.1-0.2,0.2-0.4,0.2s-0.3-0.1-0.4-0.2c-0.1-0.2-0.2-0.6-0.2-1.6s0-1.4,0.2-1.6c0.1-0.1,0.2-0.2,0.4-0.2s0.3,0.1,0.4,0.2
			C129.5,94.6,129.6,95,129.6,96z"/>
		<polygon class="st0" points="135,93.8 133.9,95.9 135.1,98.2 135.7,98.2 134.5,95.9 135.6,93.8 		"/>
		<rect x="133.4" y="93.8" class="st0" width="0.5" height="4.4"/>
		<path class="st0" d="M142.5,93.8v4.4h0.5v-1.9h0.4c0.7,0,1-0.3,1-1.3s-0.4-1.3-1-1.3L142.5,93.8L142.5,93.8z M144,95.1
			c0,0.6-0.2,0.8-0.5,0.8H143v-1.6h0.4C143.8,94.3,144,94.5,144,95.1z"/>
		<path class="st0" d="M148,94.1c-0.3,0.3-0.3,0.7-0.3,1.9c0,1.2,0,1.6,0.3,1.9c0.2,0.2,0.4,0.3,0.7,0.3s0.6-0.1,0.7-0.3
			c0.3-0.3,0.3-0.7,0.3-1.9s0-1.6-0.3-1.9c-0.2-0.2-0.4-0.3-0.7-0.3S148.1,93.9,148,94.1z M149.2,96c0,1,0,1.4-0.2,1.6
			c-0.1,0.1-0.2,0.2-0.4,0.2s-0.3-0.1-0.4-0.2c-0.1-0.2-0.2-0.6-0.2-1.6s0-1.4,0.2-1.6c0.1-0.1,0.2-0.2,0.4-0.2s0.3,0.1,0.4,0.2
			C149.2,94.6,149.2,95,149.2,96z"/>
		<path class="st0" d="M154,94.2c0.1,0,0.3,0.1,0.3,0.1c0.1,0.1,0.1,0.3,0.1,0.5h0.5c0-0.4-0.1-0.7-0.3-0.9
			c-0.2-0.2-0.4-0.3-0.7-0.3s-0.6,0.1-0.7,0.3c-0.3,0.3-0.3,0.7-0.3,1.9c0,1.2,0,1.6,0.3,1.9c0.1,0.2,0.4,0.3,0.7,0.3
			s0.5-0.1,0.7-0.3c0.2-0.2,0.3-0.5,0.3-0.9h-0.5c0,0.2,0,0.4-0.1,0.5s-0.2,0.1-0.3,0.1c-0.2,0-0.3-0.1-0.4-0.2
			c-0.1-0.2-0.2-0.6-0.2-1.6s0-1.4,0.2-1.6C153.7,94.3,153.8,94.2,154,94.2z"/>
		<path class="st0" d="M159.2,94.2c0.1,0,0.3,0.1,0.3,0.1c0.1,0.1,0.1,0.3,0.1,0.5h0.5c0-0.4-0.1-0.7-0.3-0.9
			c-0.2-0.2-0.4-0.3-0.7-0.3s-0.6,0.1-0.7,0.3c-0.3,0.3-0.3,0.7-0.3,1.9c0,1.2,0,1.6,0.3,1.9c0.1,0.2,0.4,0.3,0.7,0.3
			s0.5-0.1,0.7-0.3c0.2-0.2,0.3-0.5,0.3-0.9h-0.5c0,0.2,0,0.4-0.1,0.5s-0.2,0.1-0.3,0.1c-0.2,0-0.3-0.1-0.4-0.2
			c-0.1-0.2-0.2-0.6-0.2-1.6s0-1.4,0.2-1.6C158.9,94.3,159,94.2,159.2,94.2z"/>
		<polygon class="st0" points="165.5,98.2 165.5,93.8 165,93.8 163.9,96.9 163.9,93.8 163.4,93.8 163.4,98.2 163.9,98.2 165,95.2 
			165,98.2 		"/>
		<polygon class="st0" points="171,98.2 171,93.8 170.5,93.8 169.4,96.9 169.4,93.8 168.9,93.8 168.9,98.2 169.4,98.2 170.5,95.2 
			170.5,98.2 		"/>
	</g>
	<g>
		<path class="st0" d="M129.1,129.7c3.9,0.4,5.2,0.4,5.2,0.4c0-0.9,0-1.4,0-2.3c-1.7-0.1-2.5-0.2-4.2-0.3c-4.3-0.4-4.8-2.2-4.8-3.9
			c0-1.7,1-3.2,4.6-2.8c1.4,0.1,1.8,0.2,3.2,0.3c0.9-0.9,1.4-1.3,2.3-2.1c-2.6-0.1-3.7-0.2-6.3-0.5c-2.5-0.3-4.3,0.2-5.3,1.6
			c-0.5,0.8-0.8,1.9-0.8,3.3s0.3,2.6,0.8,3.5C124.8,128.4,126.6,129.4,129.1,129.7z"/>
		<path class="st0" d="M141.2,121.3c0,3.6,0,5.4,0,9c0.9,0,1.4,0,2.3,0c0-3.6,0-5.4,0-9c3.1,0,5.2-0.2,5.2-0.2
			c0.9-1,1.4-1.4,2.3-2.4c-5.9,0.5-8.4,0.5-14.4,0.2c-0.9,0.9-1.4,1.3-2.3,2.2C137.2,121.3,138.4,121.3,141.2,121.3z"/>
		<path class="st0" d="M149.7,130.2c0.9,0,1.4-0.1,2.3-0.1c0-1.6,0-2.4,0-3.9c1.4-0.1,2.1-0.2,3.5-0.3c0.9-1,1.4-1.5,2.3-2.6
			c-2.3,0.3-3.4,0.4-5.8,0.6c0-1.1,0-1.7,0-2.8c2.7-0.3,4-0.4,6.7-0.8c0.1,0.1,0.2,0.2,0.3,0.3c1-0.1,1.6-0.2,2.6-0.4
			c0-0.1,0-0.2,0-0.3c0-0.9,0-1.4,0-2.3c-3.8,0.6-5.4,0.8-9.3,1.1c-0.9,1-1.7,1.8-2.6,2.7C149.7,125,149.7,126.5,149.7,130.2z"/>
	</g>
</g>
</svg>
