<?xml version="1.0" encoding="utf-8"?>
<!-- Generator: Adobe Illustrator 21.0.2, SVG Export Plug-In . SVG Version: 6.00 Build 0)  -->
<svg version="1.1" id="Layer_1" xmlns="http://www.w3.org/2000/svg" xmlns:xlink="http://www.w3.org/1999/xlink" x="0px" y="0px"
	 viewBox="0 0 283.5 283.5" style="enable-background:new 0 0 283.5 283.5;" xml:space="preserve">
<style type="text/css">
	.st0{fill:#00AD7C;}
</style>
<g>
	<g>
		<path class="st0" d="M234.6,112.4c0,0-14.4,25.8-44.6,31.7c0,0-5.5,15.9-27.1,21.2c0,0,8.3,6.4,20.4,6.4
			c20.5,0,37.3-20.2,40.2-30.5c-11,11.9-19.8,13.5-19.8,13.5C218.6,146.9,230.7,130.6,234.6,112.4z"/>
		<path class="st0" d="M40.2,75c0,32.3,22.7,62.2,54.4,67.7c0,0,5.3,17.3,29.4,21.7c0,0,0,0-0.1,0.1c-2.9,2.6-6.7,5.1-11.9,6.8
			c-1.9,0.6-4.1,1.2-6.6,1.7c0,0,5.6,1.9,10.7,1.9c2.7,0,7-0.8,11-3.1c2.7,3.4,6.9,10.7,5.5,27.1c0.2-0.5,2.2-5,3.8-16.8
			c0,0,0.4,6.4-5.7,37.8c4.9-25.1-8.4-44.6-8.4-44.6c-4.2,1.6-9.3,0.9-9.3,0.9c12.7,14.4,13.5,36.9,12.6,50.2l-2.4,1.3l-3.3,7.1
			l4.4,2.4l3.8,2c7.4-10.5,9.7-24.4,9.8-25.2c-0.1,0.8-1.2,13.4-8.5,25.9l4.8,2.6c0,0,4.5-9.5,4.6-15.4c0,0,0.2,7-3.2,16.2l6.2,3.3
			v0h0h0v0l6.2-3.3c-3.4-9.2-3.2-16.2-3.2-16.2c0.1,5.8,4.6,15.4,4.6,15.4l4.8-2.6c-7.4-12.5-8.4-25.1-8.5-25.9
			c0.1,0.9,2.3,14.8,9.8,25.2l3.8-2l4.4-2.4l-3.3-7.1l-2.4-1.3c-0.9-13.3-0.1-35.9,12.6-50.2c0,0-5.1,0.7-9.3-0.9
			c0,0-13.3,19.5-8.4,44.6c-6.2-31.4-5.7-37.8-5.7-37.8c1.7,11.8,3.6,16.3,3.8,16.8c-1.4-16.4,2.8-23.7,5.5-27.1
			c3.9,2.3,8.3,3.1,11,3.1c5,0,10.7-1.9,10.7-1.9c-2.5-0.5-4.7-1.1-6.6-1.7c-5.2-1.8-9.1-4.2-11.9-6.8c-0.1-0.1-0.1-0.1-0.1-0.1
			c24.1-4.3,29.4-21.7,29.4-21.7c31.7-5.5,54.4-35.3,54.4-67.7c-5.4,23.9-16.6,31.7-16.6,31.7c16.6-17.5,14.2-49.3,14.2-49.3
			s-5.6,50-52.9,68.5c0.2-3.7,0.4-7.6,0.4-10.9c0-9.4-0.5-11.5-0.5-15.2c0-3.6,2.8-6.8,1.9-18.2c0,0-22,5.2-48,5.2h0
			c-26.1,0-48-5.2-48-5.2c-0.9,11.4,1.9,14.6,1.9,18.2c0,3.6-0.5,5.8-0.5,15.2c0,3.2,0.2,7.1,0.4,10.9
			c-47.3-18.5-52.9-68.5-52.9-68.5s-2.4,31.8,14.2,49.3C56.8,106.8,45.5,98.9,40.2,75z M105.1,93.8c0,0,13.9,2.7,36.6,2.7
			c22.7,0,36.6-2.7,36.6-2.7s3.3,19.4,0.7,34.8c-1.8,10.7-12.2,21.5-20.1,25.6c-1.9,0.9-3.6,1.5-4.7,1.7c-0.2,0-0.4,0.1-0.7,0.1
			l-0.1,0c-1.4-3.3-1.8-6.2-1.8-7.8c0-20,12.7-15.2,12.7-15.2s2.7-6-3.5-6c-6,0-14.8,4.2-14.8,4.2s1.8,1.2,0.9,2.8
			c-1.9,3.3-4.3,6.8-5.3,13.1c-1-6.3-3.5-9.8-5.3-13.1c-0.9-1.7,0.9-2.8,0.9-2.8s-8.8-4.2-14.8-4.2c-6.2,0-3.5,6-3.5,6
			s12.7-4.8,12.7,15.2c0,1.7-0.4,4.6-1.8,7.8l-0.1,0c-0.2,0-0.4,0-0.7-0.1c-1.1-0.2-2.8-0.7-4.7-1.7c-7.9-4.1-18.4-14.9-20.1-25.6
			C101.8,113.2,105.1,93.8,105.1,93.8z"/>
		<path class="st0" d="M60,141.2c2.9,10.3,19.7,30.5,40.2,30.5c12.2,0,20.4-6.4,20.4-6.4c-21.7-5.3-27.1-21.2-27.1-21.2
			c-30.1-5.9-44.6-31.7-44.6-31.7c3.8,18.2,15.9,34.5,30.9,42.3C79.8,154.7,71,153,60,141.2z"/>
		<path class="st0" d="M60.6,68.4c7.7-9.4,36.9-36.1,81.1-36.1c44.2,0,73.4,26.7,81.1,36.1c7.7,9.4-3,25.5-3,25.5s7.9-8.9,11.5-21.5
			c-15.3-19.3-45.1-44.1-89.6-44.1c-44.5,0-74.3,24.8-89.6,44.1C55.7,85,63.6,93.9,63.6,93.9S52.9,77.8,60.6,68.4z"/>
		<path class="st0" d="M248.8,104.5c-2.4-7.3,0.9-10.2,0.2-29.1c0,8.8-5.6,25.8-5.6,25.8s7.7,20.4,7.7,40.5
			c0,62.6-50.7,109.5-109.3,109.5c-58.6,0-109.3-46.9-109.3-109.5c0-20.1,7.7-40.5,7.7-40.5s-5.6-17-5.6-25.8
			c-0.8,18.9,2.6,21.8,0.2,29.1c-2.4,7.3-6.2,20.8-6.2,37.2c0,59,47.6,113.4,113.3,113.4c65.7,0,113.3-54.4,113.3-113.4
			C255,125.4,251.2,111.8,248.8,104.5z"/>
	</g>
	<g>
		<polygon class="st0" points="94.1,59.1 92.2,62.7 94.3,66.7 95.3,66.7 93.1,62.7 95.1,59.1 		"/>
		<rect x="91.3" y="59.1" class="st0" width="0.9" height="7.6"/>
		<path class="st0" d="M100.2,65.9v0.8c1,0,1.5-0.2,1.8-1.2l2-6.4h-1l-1,3.9l-1-3.9h-1l1.6,5.2l-0.3,0.8
			C101,65.7,100.8,65.9,100.2,65.9z"/>
		<path class="st0" d="M112.3,59.9v-0.8h-3.2v7.6h1.7c1.2,0,1.8-0.6,1.8-2.2c0-1.7-0.6-2.2-1.8-2.2H110v-2.3H112.3z M110.8,63
			c0.6,0,0.9,0.4,0.9,1.4c0,1-0.3,1.4-0.9,1.4h-0.8V63L110.8,63z"/>
		<path class="st0" d="M118.5,59.5c-0.5,0.6-0.6,1.2-0.6,3.3c0,2.1,0.1,2.8,0.6,3.3c0.3,0.3,0.7,0.6,1.3,0.6s1-0.3,1.3-0.6
			c0.5-0.6,0.6-1.2,0.6-3.3c0-2.1-0.1-2.8-0.6-3.3c-0.3-0.3-0.7-0.6-1.3-0.6S118.8,59.2,118.5,59.5z M120.7,62.9
			c0,1.8-0.1,2.4-0.3,2.8c-0.1,0.2-0.3,0.3-0.6,0.3s-0.5-0.1-0.6-0.3c-0.3-0.4-0.3-1-0.3-2.8c0-1.8,0.1-2.4,0.3-2.8
			c0.1-0.2,0.3-0.3,0.6-0.3s0.5,0.1,0.6,0.3C120.7,60.5,120.7,61.1,120.7,62.9z"/>
		<polygon class="st0" points="130.2,59.1 128.2,62.7 130.3,66.7 131.3,66.7 129.2,62.7 131.1,59.1 		"/>
		<rect x="127.3" y="59.1" class="st0" width="0.9" height="7.6"/>
		<path class="st0" d="M143,59.1v7.6h0.9v-3.2h0.8c1.2,0,1.8-0.6,1.8-2.2c0-1.7-0.6-2.2-1.8-2.2L143,59.1L143,59.1z M145.6,61.3
			c0,1-0.3,1.4-0.9,1.4h-0.8v-2.8h0.8C145.2,59.9,145.6,60.3,145.6,61.3z"/>
		<path class="st0" d="M152.5,59.5c-0.5,0.6-0.6,1.2-0.6,3.3c0,2.1,0.1,2.8,0.6,3.3c0.3,0.3,0.7,0.6,1.3,0.6c0.6,0,1-0.3,1.3-0.6
			c0.5-0.6,0.6-1.2,0.6-3.3c0-2.1-0.1-2.8-0.6-3.3c-0.3-0.3-0.7-0.6-1.3-0.6C153.2,59,152.7,59.2,152.5,59.5z M154.7,62.9
			c0,1.8-0.1,2.4-0.3,2.8c-0.1,0.2-0.3,0.3-0.6,0.3c-0.3,0-0.5-0.1-0.6-0.3c-0.3-0.4-0.3-1-0.3-2.8c0-1.8,0.1-2.4,0.3-2.8
			c0.1-0.2,0.3-0.3,0.6-0.3c0.3,0,0.5,0.1,0.6,0.3C154.7,60.5,154.7,61.1,154.7,62.9z"/>
		<path class="st0" d="M162.9,59.8c0.3,0,0.4,0.1,0.6,0.3c0.2,0.3,0.3,0.6,0.3,0.9h0.9c0-0.6-0.2-1.2-0.5-1.5
			c-0.3-0.3-0.6-0.4-1.2-0.4s-1,0.3-1.3,0.6c-0.5,0.6-0.6,1.2-0.6,3.3c0,2.1,0.1,2.8,0.6,3.3c0.3,0.3,0.7,0.6,1.3,0.6
			c0.5,0,0.9-0.1,1.2-0.4c0.4-0.3,0.6-0.9,0.6-1.5h-0.9c0,0.3-0.1,0.6-0.3,0.9c-0.1,0.1-0.3,0.3-0.6,0.3c-0.3,0-0.5-0.1-0.6-0.3
			c-0.3-0.4-0.3-1-0.3-2.8c0-1.8,0.1-2.4,0.3-2.8C162.4,59.9,162.6,59.8,162.9,59.8z"/>
		<path class="st0" d="M171.9,59.8c0.3,0,0.4,0.1,0.6,0.3c0.2,0.3,0.3,0.6,0.3,0.9h0.9c0-0.6-0.2-1.2-0.5-1.5
			c-0.3-0.3-0.6-0.4-1.2-0.4c-0.6,0-1,0.3-1.3,0.6c-0.5,0.6-0.6,1.2-0.6,3.3c0,2.1,0.1,2.8,0.6,3.3c0.3,0.3,0.7,0.6,1.3,0.6
			c0.5,0,0.9-0.1,1.2-0.4c0.4-0.3,0.6-0.9,0.6-1.5h-0.9c0,0.3-0.1,0.6-0.3,0.9c-0.1,0.1-0.3,0.3-0.6,0.3c-0.3,0-0.5-0.1-0.6-0.3
			c-0.3-0.4-0.3-1-0.3-2.8c0-1.8,0.1-2.4,0.3-2.8C171.3,59.9,171.5,59.8,171.9,59.8z"/>
		<polygon class="st0" points="182.7,66.7 182.7,59.1 181.9,59.1 180,64.4 180,59.1 179.2,59.1 179.2,66.7 180,66.7 181.8,61.4 
			181.8,66.7 		"/>
		<polygon class="st0" points="192.2,66.7 192.2,59.1 191.4,59.1 189.5,64.4 189.5,59.1 188.6,59.1 188.6,66.7 189.5,66.7 
			191.3,61.4 191.3,66.7 		"/>
	</g>
	<g>
		<path class="st0" d="M119.9,120.9c6.7,0.7,9,0.8,9,0.8c0-1.6,0-2.4,0-4c-2.9-0.2-4.4-0.3-7.2-0.6c-7.4-0.8-8.3-3.8-8.3-6.8
			c0-3,1.8-5.5,8-4.9c2.4,0.3,3.1,0.3,5.6,0.5c1.6-1.5,2.4-2.2,4-3.7c-4.5-0.3-6.3-0.4-10.9-0.9c-4.3-0.5-7.5,0.3-9.2,2.8
			c-0.9,1.3-1.4,3.2-1.4,5.6s0.4,4.4,1.4,6C112.5,118.8,115.6,120.5,119.9,120.9z"/>
		<path class="st0" d="M140.9,106.5c0,6.3,0,9.3,0,15.6c1.6,0,2.4,0,4,0c0-6.3,0-9.3,0-15.6c5.4-0.1,9-0.3,9-0.3
			c1.6-1.7,2.4-2.5,4-4.2c-10.2,0.8-14.5,0.9-24.8,0.4c-1.6,1.5-2.4,2.2-4,3.7C133.9,106.4,136,106.5,140.9,106.5z"/>
		<path class="st0" d="M155.4,121.8c1.6-0.1,2.4-0.1,4-0.3c0-2.8,0-4.1,0-6.8c2.4-0.2,3.6-0.3,6-0.6c1.6-1.8,2.4-2.6,4-4.4
			c-4,0.5-5.9,0.7-10,1c0-1.9,0-2.9,0-4.8c4.7-0.4,7-0.7,11.5-1.3c0.3,0.2,0.3,0.3,0.6,0.5c1.8-0.3,2.7-0.4,4.4-0.6
			c0-0.3,0-0.3,0-0.6c0-1.6,0-2.4,0-4c-6.6,1-9.4,1.4-16,1.9c-1.6,1.7-2.9,3.1-4.5,4.7C155.4,112.9,155.4,115.5,155.4,121.8z"/>
	</g>
</g>
</svg>
